<?xml version="1.0" standalone="no"?>
<!DOCTYPE svg PUBLIC "-//W3C//DTD SVG 20010904//EN"
 "http://www.w3.org/TR/2001/REC-SVG-20010904/DTD/svg10.dtd">
<svg version="1.0" xmlns="http://www.w3.org/2000/svg"
 width="800.000000pt" height="800.000000pt" viewBox="0 0 800.000000 800.000000"
 preserveAspectRatio="xMidYMid meet">
<metadata>
Created by potrace 1.14, written by Peter Selinger 2001-2017
</metadata>
<g transform="translate(0.000000,800.000000) scale(0.100000,-0.100000)"
fill="#000000" stroke="none">
<path d="M4925 5428 c-3 -13 -7 -47 -8 -75 -1 -29 -4 -53 -7 -53 -3 0 -6 -12
-7 -27 -5 -75 -16 -139 -25 -144 -7 -4 -6 -9 1 -13 6 -4 8 -13 4 -19 -8 -13
-12 -28 -16 -72 -2 -17 -6 -36 -11 -43 -4 -7 -2 -12 4 -12 6 0 8 -4 5 -10 -7
-11 -17 -76 -17 -102 1 -10 -4 -18 -9 -18 -6 0 -7 -5 -4 -10 3 -6 4 -19 0 -29
-4 -14 -14 -18 -47 -15 -95 7 -186 7 -197 0 -6 -4 -11 -4 -11 1 0 4 -26 7 -57
6 -32 -1 -132 -4 -223 -7 -91 -3 -192 -8 -225 -11 -33 -3 -80 -7 -105 -10 -25
-2 -45 -4 -45 -5 0 -8 -53 -5 -64 4 -11 8 -13 8 -7 -1 5 -9 -2 -13 -23 -14
-17 -1 -34 -2 -38 -3 -18 -5 -120 -19 -143 -21 -14 -1 -32 -4 -40 -7 -8 -4
-22 -7 -30 -7 -35 -2 -86 -9 -100 -15 -8 -3 -31 -8 -50 -11 -38 -6 -47 -8
-130 -25 -70 -15 -85 -18 -85 -20 0 -1 -9 -3 -20 -5 -46 -9 -96 -20 -112 -25
-5 -1 -12 -3 -18 -5 -5 -1 -12 -3 -15 -4 -6 -3 -28 -8 -62 -16 -15 -3 -39 -10
-53 -15 -14 -5 -25 -6 -25 -3 0 4 -5 2 -12 -5 -7 -7 -22 -12 -34 -12 -13 0
-26 -5 -29 -10 -4 -6 -10 -8 -15 -5 -5 3 -11 1 -15 -5 -4 -6 -11 -8 -16 -5 -5
4 -15 3 -21 -2 -13 -8 -33 -13 -55 -15 -7 -1 -13 -4 -13 -8 0 -4 -6 -7 -12 -8
-19 -1 -50 -9 -79 -20 -15 -6 -30 -8 -33 -5 -3 4 -6 2 -6 -4 0 -10 -51 -27
-77 -26 -7 0 -13 -3 -13 -9 0 -5 -4 -6 -10 -3 -5 3 -10 1 -10 -5 0 -7 -6 -10
-14 -7 -8 3 -16 2 -18 -3 -2 -6 -15 -11 -30 -12 -16 -1 -28 -6 -28 -10 0 -4
-9 -8 -20 -8 -11 0 -20 -5 -20 -11 0 -5 -4 -8 -8 -5 -9 5 -86 -21 -149 -49
-17 -8 -36 -15 -42 -15 -6 0 -11 -5 -11 -10 0 -6 -6 -10 -13 -8 -6 1 -37 -10
-68 -24 -31 -15 -65 -28 -75 -30 -11 -2 -24 -9 -29 -16 -6 -7 -20 -14 -33 -15
-12 0 -22 -5 -22 -9 0 -4 -9 -8 -20 -8 -11 0 -20 -5 -20 -11 0 -6 -6 -9 -12
-6 -7 2 -25 -4 -39 -14 -14 -10 -29 -16 -33 -12 -3 3 -6 1 -6 -5 0 -7 -3 -11
-7 -10 -5 1 -28 -7 -53 -18 -25 -11 -49 -21 -54 -21 -5 -1 -12 -6 -16 -13 -4
-6 -16 -12 -28 -13 -12 0 -19 -3 -17 -5 2 -2 -45 -28 -103 -58 -58 -30 -112
-60 -119 -66 -7 -6 -13 -7 -13 -4 0 4 -20 -7 -44 -23 -24 -17 -46 -27 -50 -24
-3 4 -6 1 -6 -5 0 -7 -7 -12 -16 -12 -10 0 -14 -6 -11 -14 4 -10 1 -13 -7 -10
-8 3 -17 0 -21 -5 -3 -6 -10 -9 -14 -6 -5 2 -16 -4 -26 -15 -10 -12 -13 -20
-7 -20 7 0 12 5 12 10 0 6 9 10 20 10 29 0 70 22 63 33 -3 6 -1 7 4 4 6 -4 24
0 39 8 16 8 36 15 45 15 8 0 25 9 37 20 13 13 22 16 22 8 0 -9 3 -9 12 0 7 7
20 12 30 12 10 0 18 5 18 12 0 6 3 8 7 5 3 -4 12 -2 20 4 7 6 13 9 13 5 0 -4
14 1 30 9 17 9 35 13 40 10 6 -3 10 -1 10 4 0 6 8 11 18 11 9 0 30 7 46 15 16
9 31 13 33 11 3 -2 16 2 30 9 15 8 30 12 35 9 4 -3 8 0 8 5 0 6 8 11 18 11 10
0 23 5 30 12 9 9 12 9 12 0 0 -7 5 -12 11 -12 5 0 7 5 4 10 -3 6 3 10 14 10
11 0 23 5 26 10 4 6 10 8 15 5 5 -3 21 0 37 7 33 13 28 12 76 21 20 5 37 12
37 17 0 5 7 7 15 4 8 -4 23 0 32 7 14 12 15 12 9 0 -6 -9 -1 -8 17 3 14 10 37
19 52 22 15 3 33 6 39 7 6 1 13 5 16 9 3 3 21 9 40 12 34 7 60 13 70 16 3 1 9
2 14 1 4 -1 14 3 22 10 8 6 20 9 28 6 7 -3 18 -1 22 3 5 5 19 11 31 13 13 2
26 6 29 10 12 12 26 8 18 -5 -5 -8 -3 -8 7 -2 8 5 23 9 34 9 11 0 26 5 34 9
14 9 49 17 89 19 12 1 22 6 22 10 0 5 4 6 9 2 5 -3 12 -1 16 5 4 6 11 8 16 5
5 -4 9 -2 9 4 0 5 11 8 25 6 14 -1 28 1 30 5 3 4 15 8 27 8 22 1 63 9 63 12 0
3 91 13 127 14 21 1 38 5 38 10 0 4 9 6 20 3 11 -3 20 -2 20 2 0 4 16 7 35 6
19 -1 35 1 35 4 0 4 18 7 41 6 23 -1 52 4 64 11 17 9 25 9 28 1 2 -6 9 -7 17
-2 13 8 70 14 182 18 25 1 50 5 54 9 4 4 13 3 21 -3 8 -7 13 -8 13 -1 0 5 20
9 45 9 25 -1 47 3 49 8 3 6 9 4 14 -4 5 -7 12 -9 15 -5 7 12 532 6 532 -5 0
-3 124 -12 193 -14 34 -1 62 -4 62 -7 0 -3 10 -7 23 -7 82 -5 107 -8 107 -15
0 -4 11 -3 25 2 13 5 26 6 29 2 3 -4 22 -9 42 -10 40 -3 67 -18 58 -33 -3 -5
-1 -9 5 -9 5 0 7 -12 5 -27 -11 -74 -11 -93 -3 -99 5 -3 6 -10 3 -16 -5 -8
-12 -76 -17 -175 0 -13 -4 -23 -7 -23 -3 0 -6 -12 -5 -27 0 -16 -4 -31 -10
-35 -6 -5 -6 -8 2 -8 7 0 10 -6 8 -12 -3 -7 -7 -27 -9 -45 -3 -29 -2 -31 20
-22 13 4 24 7 24 4 0 -2 12 7 26 20 15 14 33 25 41 25 8 0 12 4 9 8 -3 5 6 15
19 22 14 7 25 17 25 22 0 4 5 8 12 8 6 0 18 7 27 15 52 47 61 54 61 49 0 -4
12 5 26 20 15 14 31 26 36 26 5 0 6 5 3 10 -3 6 1 10 9 10 8 0 27 11 42 25 26
24 84 35 84 16 0 -5 14 -14 30 -21 17 -7 30 -16 30 -21 0 -5 5 -9 10 -9 6 0
20 -9 32 -20 12 -11 28 -20 35 -20 7 0 13 -4 13 -10 0 -5 7 -10 15 -10 8 0 15
-4 15 -10 0 -5 7 -10 15 -10 8 0 15 -4 15 -10 0 -5 7 -10 15 -10 8 0 15 -5 15
-11 0 -5 5 -7 10 -4 6 3 10 2 10 -2 0 -5 16 -17 35 -27 19 -11 35 -23 35 -28
0 -4 3 -7 8 -7 18 3 33 -2 28 -9 -3 -5 0 -9 7 -9 7 0 35 -15 62 -35 49 -34 85
-45 81 -24 -5 25 -41 96 -49 96 -4 0 -5 5 -2 10 3 6 1 10 -6 10 -7 0 -9 8 -6
21 3 12 3 18 -1 15 -8 -9 -42 66 -35 78 4 5 2 6 -3 3 -6 -3 -15 6 -21 21 -6
15 -21 53 -34 85 -12 31 -26 57 -31 57 -4 0 -8 9 -8 19 0 11 -4 23 -10 26 -5
3 -10 15 -10 26 0 11 -7 27 -16 36 -8 9 -13 22 -10 29 3 8 1 14 -3 14 -5 0 -7
9 -4 20 3 11 9 18 13 15 5 -3 11 4 15 15 3 11 10 20 14 20 4 0 36 27 69 60 34
33 62 58 62 55 0 -4 11 5 23 19 13 14 27 22 31 18 4 -4 6 -2 4 3 -2 6 14 26
36 45 21 19 50 47 64 62 13 15 29 25 33 22 5 -3 9 2 9 11 0 8 10 20 23 25 12
5 18 9 13 9 -6 1 4 11 21 24 44 32 30 49 -38 46 -30 -1 -62 -6 -73 -11 -13 -7
-16 -7 -12 1 5 8 0 8 -17 2 -13 -5 -30 -5 -37 -1 -8 5 -19 5 -25 1 -12 -9 -26
-8 -42 2 -7 5 -13 5 -13 0 0 -4 -20 -9 -45 -10 -29 -1 -43 3 -38 10 4 6 1 7
-8 1 -21 -13 -103 -13 -111 0 -6 8 -8 8 -8 -1 0 -9 -24 -12 -80 -11 -44 0 -77
5 -74 9 3 5 0 9 -5 9 -6 0 -21 21 -33 48 -12 26 -25 49 -29 52 -4 3 -9 16 -10
30 -2 14 -10 31 -17 38 -7 8 -10 17 -7 22 3 5 0 10 -5 12 -6 2 -12 13 -13 26
0 12 -5 22 -9 22 -4 0 -8 6 -8 13 0 19 -24 67 -33 67 -5 0 -6 4 -2 9 3 5 1 12
-5 16 -6 4 -8 11 -5 16 4 5 1 9 -4 9 -6 0 -11 7 -11 15 0 14 -18 53 -30 65 -3
3 -6 12 -8 20 -5 19 -71 160 -76 160 -2 0 -7 -10 -11 -22z"/>
<path d="M6720 5423 c0 -7 -6 -10 -13 -7 -8 3 -14 -2 -14 -11 0 -13 7 -16 28
-13 31 5 37 -6 34 -62 -1 -19 3 -38 9 -42 7 -5 8 -11 1 -15 -12 -9 -13 -33 -2
-50 4 -6 3 -14 -2 -17 -12 -8 -7 -39 7 -44 20 -6 29 39 26 127 -4 93 7 113 54
105 16 -3 23 -1 20 8 -3 9 -25 13 -69 12 -35 0 -67 5 -71 10 -5 7 -8 7 -8 -1z"/>
<path d="M6916 5413 c-3 -4 -6 -14 -6 -24 0 -9 -6 -20 -12 -22 -10 -4 -10 -6
-1 -6 9 -1 10 -8 3 -25 -6 -17 -5 -26 2 -28 7 -3 1 -14 -13 -28 -13 -12 -18
-19 -10 -15 10 6 12 -3 10 -43 -3 -29 1 -54 8 -60 17 -17 30 6 31 58 2 62 12
101 23 94 5 -3 6 -10 3 -16 -4 -7 -2 -8 4 -4 8 5 11 -3 8 -25 -2 -20 2 -37 13
-48 10 -10 16 -28 14 -43 -3 -22 0 -25 17 -21 11 3 20 10 20 15 0 5 4 7 8 4 5
-3 8 11 7 31 0 21 5 37 13 40 7 3 11 12 7 21 -4 12 -2 12 8 4 8 -7 17 -8 21
-4 4 4 7 3 6 -3 -1 -6 -1 -14 0 -20 5 -23 5 -40 -2 -46 -5 -3 -1 -14 7 -25 12
-16 16 -17 24 -5 8 12 9 78 1 89 -5 7 -2 81 4 90 4 7 3 12 -3 12 -6 0 -8 7 -5
15 3 8 -1 21 -9 30 -14 13 -17 13 -30 0 -8 -8 -18 -11 -22 -7 -4 4 -6 0 -5 -8
5 -27 -12 -80 -23 -73 -5 3 -8 2 -5 -3 3 -5 0 -25 -8 -44 -7 -19 -13 -29 -13
-22 -1 7 -5 11 -9 8 -4 -2 -9 9 -10 25 -1 17 -10 42 -20 57 -9 14 -15 26 -13
27 2 0 1 10 -3 22 -7 22 -29 36 -40 26z"/>
<path d="M3625 4302 c-2 -3 -26 -6 -52 -8 -27 -1 -86 -5 -133 -8 -92 -6 -167
-13 -215 -20 -16 -3 -57 -8 -90 -12 -33 -3 -69 -8 -80 -11 -11 -2 -49 -8 -85
-14 -36 -5 -72 -12 -81 -15 -16 -4 -29 -7 -109 -18 -19 -3 -55 -10 -80 -15
-25 -6 -56 -12 -70 -14 -14 -2 -38 -9 -55 -16 -16 -7 -47 -13 -67 -14 -21 -1
-38 -6 -38 -10 0 -5 -4 -6 -9 -2 -5 3 -12 1 -16 -5 -4 -6 -10 -8 -14 -6 -4 3
-13 1 -21 -4 -8 -5 -22 -4 -33 2 -13 7 -17 7 -13 0 3 -6 2 -13 -3 -16 -5 -4
-13 -1 -17 5 -5 8 -8 8 -14 0 -6 -10 -42 -20 -87 -23 -6 -1 -9 -7 -7 -13 5
-12 39 -12 114 0 25 5 53 8 63 9 9 0 17 3 17 7 0 4 19 7 43 7 23 0 44 1 47 2
3 1 16 4 30 6 14 2 39 6 55 9 32 6 168 16 252 18 29 1 53 4 53 8 0 6 10 7 160
9 133 3 465 -11 465 -19 0 -2 15 -4 110 -15 28 -4 69 -10 93 -15 23 -4 42 -6
42 -3 0 2 7 -1 15 -8 8 -7 15 -10 15 -7 0 3 36 -3 80 -13 43 -10 82 -15 85
-12 3 3 5 0 5 -6 0 -7 15 -12 35 -12 19 0 35 -4 35 -8 0 -4 12 -9 27 -10 15
-1 29 -6 32 -10 3 -4 13 -7 21 -7 8 1 20 -2 25 -6 6 -4 22 -10 35 -12 14 -3
39 -11 55 -18 17 -7 35 -14 40 -15 30 -6 55 -17 55 -25 0 -5 3 -8 8 -7 13 4
82 -26 82 -36 0 -5 3 -7 6 -3 8 8 87 -32 97 -49 4 -8 17 -14 27 -14 11 0 20
-5 20 -12 0 -25 14 5 17 35 8 100 13 146 18 182 11 69 14 235 4 229 -5 -3 -9
-1 -9 5 0 6 -7 8 -15 5 -8 -4 -15 -2 -15 4 0 6 -9 8 -20 5 -11 -3 -20 -1 -20
3 0 5 -25 9 -55 9 -30 0 -55 2 -55 5 0 3 -19 6 -42 6 -55 2 -127 12 -141 21
-6 4 -7 1 -2 -6 6 -10 3 -11 -11 -3 -19 10 -599 14 -609 4z"/>
<path d="M2207 4059 c7 -7 15 -10 18 -7 3 3 -2 9 -12 12 -14 6 -15 5 -6 -5z"/>
<path d="M1167 3624 c-2 -2 -19 -4 -39 -6 -20 -1 -35 -5 -32 -9 2 -4 -3 -10
-12 -13 -9 -4 -14 -13 -10 -21 3 -8 0 -15 -5 -15 -6 0 -9 -9 -6 -20 3 -11 1
-23 -4 -26 -5 -3 -9 -16 -9 -29 0 -13 -5 -27 -10 -30 -6 -4 -8 -11 -5 -16 4
-5 2 -9 -3 -9 -5 0 -8 -10 -7 -22 1 -13 -2 -26 -6 -29 -5 -3 -10 -17 -11 -32
-1 -15 -6 -27 -10 -27 -4 0 -8 -13 -8 -28 0 -16 -3 -32 -7 -36 -5 -4 -9 -12
-9 -17 -1 -5 -2 -10 -4 -11 -2 -4 -11 -41 -12 -55 -1 -7 -5 -13 -10 -13 -5 0
-6 -5 -3 -10 4 -6 2 -16 -3 -23 -9 -12 -27 -85 -24 -99 1 -5 -2 -8 -8 -8 -6 0
-9 -3 -9 -7 1 -5 1 -10 -1 -13 -1 -3 -3 -16 -6 -29 -2 -14 -10 -31 -17 -40
-10 -12 -9 -13 3 -6 13 8 13 7 0 -9 -8 -10 -16 -30 -18 -44 -2 -15 -6 -29 -10
-32 -4 -3 -8 -14 -10 -25 -1 -11 -5 -32 -8 -47 -4 -23 -1 -28 20 -34 15 -3 42
-4 61 -2 19 2 35 0 35 -4 0 -4 12 -3 28 3 15 6 27 9 28 7 0 -2 7 4 15 12 13
13 18 29 21 68 1 6 5 12 9 12 5 0 6 7 3 15 -4 8 -1 15 5 15 6 0 10 3 9 8 -4
16 14 72 22 67 5 -3 10 0 12 6 2 6 20 12 41 13 20 0 37 4 37 8 0 8 21 5 37 -5
6 -4 15 -3 18 3 5 8 11 8 20 0 9 -8 15 -8 20 0 4 7 12 7 24 0 10 -5 21 -7 23
-4 3 2 11 -3 19 -13 12 -15 12 -16 -1 -8 -9 5 -8 0 4 -13 11 -12 15 -22 10
-22 -5 0 -4 -4 3 -8 6 -4 14 -21 17 -37 2 -17 5 -31 6 -32 2 -2 4 -7 5 -13 1
-5 4 -13 5 -17 1 -5 2 -11 1 -15 0 -5 3 -8 8 -8 5 0 11 -9 14 -21 5 -19 11
-20 84 -17 72 4 133 23 107 34 -5 2 -9 18 -8 34 1 17 -2 30 -8 30 -5 0 -7 4
-4 9 3 4 0 23 -6 42 -12 37 -17 57 -18 64 0 3 -7 19 -16 36 -8 17 -13 33 -10
36 3 3 0 15 -7 27 -6 11 -12 26 -12 31 -1 6 -10 35 -20 65 -11 30 -20 58 -21
63 -1 4 -3 9 -4 12 -1 3 -3 9 -4 14 0 5 -4 13 -8 17 -5 4 -8 19 -8 33 0 14 -7
34 -15 44 -7 11 -12 27 -10 38 2 10 0 21 -6 24 -5 4 -9 16 -9 29 0 12 -3 26
-7 30 -7 7 -13 28 -16 61 -1 11 -5 22 -9 25 -4 3 -9 16 -11 29 -5 34 -46 74
-62 61 -6 -5 -14 -7 -17 -5 -12 12 -48 13 -48 2 0 -8 -3 -8 -8 -2 -6 9 -58 16
-65 9z m101 -356 c9 -24 16 -51 16 -60 -1 -10 1 -18 5 -18 13 0 7 -89 -6 -95
-9 -3 -11 0 -7 8 6 9 4 9 -8 -1 -20 -16 -108 -11 -128 7 -18 17 -19 35 -3 83
6 20 9 39 6 42 -4 3 -2 6 3 6 5 0 10 9 11 21 2 27 31 48 66 49 23 0 30 -7 45
-42z"/>
<path d="M4115 3604 c-11 -8 -21 -19 -21 -24 -1 -6 -3 -13 -4 -17 -1 -5 -2
-12 -1 -17 1 -4 -4 -15 -11 -24 -7 -9 -8 -13 -2 -9 14 8 13 -115 -1 -125 -7
-5 -6 -8 1 -8 11 0 12 -28 1 -46 -3 -6 -3 -14 0 -18 12 -11 12 -40 1 -53 -6
-8 -7 -13 -1 -13 6 0 10 -16 9 -35 0 -19 -5 -35 -11 -35 -7 0 -7 -3 0 -8 12
-9 15 -72 3 -72 -5 0 -6 -5 -3 -11 10 -16 12 -79 2 -79 -4 0 -5 -6 0 -12 11
-19 12 -61 1 -75 -5 -6 -5 -14 0 -17 5 -3 9 -39 9 -81 0 -62 4 -78 19 -89 10
-8 24 -12 30 -9 7 2 15 -1 19 -7 5 -8 11 -8 20 0 13 11 49 9 61 -3 4 -3 12 -3
18 0 6 4 43 8 81 9 39 1 70 3 70 4 0 1 14 3 30 5 17 1 30 3 30 4 0 3 35 10 62
13 12 1 19 6 17 10 -5 7 13 12 43 11 7 -1 11 3 8 7 -5 8 32 23 48 21 5 -1 6 3
2 9 -3 5 -1 10 5 10 14 0 90 75 90 90 0 5 4 10 10 10 5 0 10 3 9 8 -2 16 14
52 24 52 6 0 8 3 4 6 -3 4 0 22 8 40 8 19 11 34 8 34 -3 0 -2 6 3 13 14 19 8
257 -6 257 -4 0 -13 18 -20 40 -7 22 -17 40 -22 40 -5 0 -6 5 -3 10 3 6 0 13
-9 16 -8 3 -13 11 -10 18 3 7 -7 18 -20 26 -14 7 -23 17 -20 22 3 4 0 8 -6 8
-6 0 -20 8 -31 19 -26 24 -96 59 -134 66 -16 4 -46 9 -65 13 -51 9 -292 7
-314 -3 -14 -6 -17 -5 -12 3 9 16 5 15 -19 -4z m179 -87 c11 11 96 11 90 1 -4
-6 3 -5 13 1 11 6 22 8 24 6 3 -2 17 -6 33 -9 16 -3 33 -11 38 -18 5 -9 8 -9
8 -1 0 7 13 5 38 -8 49 -24 72 -43 72 -58 0 -7 4 -10 9 -7 12 8 64 -101 55
-115 -4 -8 -3 -9 4 -5 14 8 14 6 16 -111 1 -46 -1 -83 -5 -83 -4 0 -6 -6 -6
-12 6 -64 -51 -174 -111 -214 -40 -27 -99 -53 -106 -46 -3 3 -6 1 -6 -5 0 -5
-15 -10 -32 -11 -18 -1 -70 -4 -115 -7 -55 -3 -83 -2 -83 6 0 5 -4 7 -10 4
-12 -7 -11 -22 -13 293 -1 162 2 252 8 252 6 0 4 4 -3 9 -8 4 -14 12 -14 16 0
4 6 12 14 16 11 7 11 9 -1 9 -11 0 -11 3 -1 15 7 8 8 15 3 15 -5 0 -9 11 -9
25 0 14 4 25 9 25 4 0 5 5 1 12 -5 7 -2 9 8 6 8 -4 21 -2 29 2 7 5 18 5 25 0
6 -6 14 -7 18 -3z"/>
<path d="M6450 3609 c0 -6 -3 -8 -7 -6 -10 6 -34 -19 -26 -27 4 -3 1 -6 -5 -6
-15 0 -6 -59 13 -80 8 -9 13 -19 10 -22 -3 -3 14 -5 39 -4 24 0 42 4 40 8 -2
4 3 11 12 16 9 5 17 21 17 35 0 15 4 24 9 21 8 -5 -17 53 -28 65 -9 10 -74 10
-74 0z"/>
<path d="M2460 3528 c0 -6 -3 -8 -7 -5 -3 4 -11 3 -17 -2 -6 -6 -24 -11 -38
-13 -15 -2 -35 -12 -46 -21 -10 -9 -22 -14 -27 -10 -4 5 -4 1 0 -7 20 -34 -5
-103 -39 -105 -29 -2 -43 -17 -38 -41 2 -13 -2 -32 -9 -41 -12 -14 -12 -16 0
-8 11 6 13 4 8 -8 -4 -10 -2 -17 4 -17 6 0 9 -6 6 -13 -3 -9 4 -12 23 -11 51
3 52 -1 53 -182 1 -93 5 -171 9 -174 4 -3 10 -17 12 -30 2 -14 5 -27 6 -30 2
-3 2 -8 1 -12 0 -5 6 -8 14 -8 8 0 15 -6 15 -14 0 -8 9 -18 20 -21 11 -3 20
-10 20 -15 0 -5 8 -9 18 -9 34 -1 67 -7 80 -14 6 -5 12 -4 12 0 0 5 23 8 50 8
28 0 50 3 50 8 0 4 6 5 13 1 6 -4 9 -4 5 1 -4 4 -2 15 5 23 10 13 9 14 -3 7
-13 -7 -13 -6 -2 7 9 11 10 18 2 23 -6 3 -7 12 -3 18 21 33 -3 66 -43 61 -13
-1 -24 2 -24 7 0 5 -3 8 -7 8 -27 -4 -45 3 -40 15 3 8 -1 17 -8 20 -8 3 -12
14 -10 26 2 11 0 20 -5 20 -5 0 -5 13 0 30 5 17 5 30 2 30 -4 0 -7 18 -7 40 0
22 3 40 8 40 4 0 4 8 -1 18 -11 23 -9 52 5 77 9 15 23 20 60 21 84 2 80 -2 81
62 2 54 -10 94 -23 80 -4 -3 -20 -2 -36 2 -16 5 -29 5 -29 1 0 -5 -11 -6 -25
-3 -14 2 -22 8 -19 13 3 5 0 9 -6 9 -6 0 -8 5 -5 10 3 6 2 10 -2 10 -9 0 -8
73 1 96 6 16 -1 21 -37 28 -16 3 -27 0 -27 -6z"/>
<path d="M1904 3378 c-3 -4 -12 -8 -21 -8 -58 0 -152 -78 -156 -131 -1 -10 -4
-19 -7 -19 -5 0 -5 -77 0 -90 1 -3 2 -8 1 -12 0 -4 16 -25 37 -48 22 -22 36
-43 33 -46 -3 -3 1 -5 9 -4 22 3 60 -11 60 -22 0 -6 7 -7 15 -4 9 3 18 -1 21
-9 3 -7 11 -12 19 -9 7 3 20 -2 29 -11 9 -9 16 -14 16 -10 0 4 6 0 14 -7 22
-23 7 -88 -20 -88 -8 0 -14 -4 -14 -8 0 -10 -103 2 -147 16 -18 6 -33 8 -33 5
0 -3 -7 0 -15 7 -13 10 -15 9 -15 -9 0 -12 -3 -20 -7 -18 -5 3 -9 -6 -10 -19
-7 -87 -8 -82 28 -90 13 -3 40 -9 60 -13 19 -4 41 -11 47 -15 6 -3 13 -3 15 1
3 5 37 8 75 8 39 -1 68 3 65 8 -3 5 1 7 8 6 8 -1 28 4 44 11 17 7 33 13 38 12
4 -1 7 5 7 13 0 8 7 15 15 15 8 0 15 7 15 16 0 8 4 13 9 10 10 -6 20 14 27 54
3 13 11 31 17 39 7 9 7 12 1 8 -7 -4 -11 5 -12 23 -3 50 -5 60 -12 60 -3 0
-14 13 -23 30 -16 27 -125 91 -165 96 -8 2 -18 6 -21 11 -3 4 -15 13 -26 19
-26 14 -29 58 -5 79 23 21 118 15 156 -10 15 -9 24 -13 20 -7 -3 5 2 12 12 14
10 3 19 11 20 19 10 88 9 94 -6 106 -10 7 -29 13 -44 13 -16 0 -28 3 -28 8 0
10 -140 10 -146 0z"/>
<path d="M3098 3379 c-10 -5 -18 -7 -18 -3 0 4 -7 -1 -15 -12 -10 -13 -14 -15
-15 -5 0 8 -12 2 -29 -17 -25 -26 -32 -28 -42 -16 -6 8 -8 14 -3 14 5 1 -4 8
-21 17 -16 10 -33 17 -36 16 -3 -1 -35 -3 -71 -4 -64 -2 -66 -3 -70 -31 -3
-15 -2 -28 1 -28 8 0 5 -86 -3 -99 -4 -5 -2 -12 4 -16 6 -4 7 -11 4 -17 -10
-16 -10 -208 0 -208 5 0 4 -6 -1 -12 -11 -14 -10 -88 1 -106 3 -6 2 -14 -4
-17 -8 -5 -7 -11 1 -21 9 -11 8 -14 -2 -14 -9 0 -10 -3 -4 -8 6 -4 12 -16 13
-27 2 -11 6 -22 8 -24 10 -10 144 -16 148 -6 3 5 5 4 5 -2 1 -9 7 -7 19 5 14
13 16 21 8 31 -8 11 -8 13 0 8 15 -9 14 265 -1 275 -7 5 -7 8 0 8 6 0 12 14
13 32 2 18 9 39 17 48 8 9 15 21 15 26 0 5 16 17 35 26 19 8 35 13 35 9 0 -4
9 -7 20 -7 11 0 20 4 20 8 0 5 10 4 21 -3 15 -8 19 -8 15 0 -4 6 -3 11 1 11 5
0 8 27 6 61 -2 46 0 58 10 53 9 -6 9 -4 -1 8 -7 9 -11 22 -10 29 2 8 -3 13 -9
12 -7 -2 -13 2 -13 7 0 13 -30 12 -52 -1z"/>
<path d="M3482 3378 c-5 -5 -16 -11 -23 -12 -42 -9 -91 -40 -134 -86 -5 -6
-18 -19 -27 -28 -10 -9 -18 -22 -18 -29 0 -6 -7 -19 -16 -27 -9 -10 -17 -38
-19 -71 -2 -30 -7 -59 -10 -65 -3 -5 -1 -10 6 -10 8 0 9 -4 0 -13 -8 -10 -7
-17 1 -25 9 -9 9 -12 -1 -12 -11 0 -11 -3 -1 -15 6 -8 9 -18 7 -23 -3 -4 3
-27 14 -51 10 -24 16 -47 13 -52 -3 -5 0 -8 8 -7 7 2 12 -3 10 -9 -1 -7 2 -13
6 -13 5 0 17 -9 29 -19 11 -10 34 -26 51 -35 18 -9 32 -21 32 -26 0 -5 7 -7
15 -4 8 4 21 2 28 -4 7 -6 32 -13 56 -16 23 -2 45 -7 48 -10 3 -2 16 -1 29 4
17 7 24 6 24 -2 0 -9 3 -9 12 0 7 7 20 12 30 12 10 0 35 7 56 17 20 9 40 16
43 15 4 -1 21 12 38 28 17 17 36 30 41 30 6 0 9 4 5 9 -3 6 3 14 12 20 10 5
17 12 15 15 -1 4 4 19 12 34 15 29 24 71 31 136 7 70 -36 212 -75 246 -11 9
-17 20 -13 24 3 3 -1 6 -10 6 -10 0 -17 5 -17 10 0 6 -9 10 -21 10 -11 0 -17
5 -14 10 3 6 -3 10 -14 10 -12 0 -21 4 -21 8 0 5 -6 9 -12 10 -7 1 -26 4 -43
7 -51 11 -174 12 -183 3z m151 -149 c37 -25 55 -57 62 -114 3 -20 8 -41 11
-46 3 -5 2 -9 -3 -9 -4 0 -8 -24 -9 -54 0 -60 -27 -122 -56 -132 -10 -3 -18
-10 -18 -15 0 -6 -22 -9 -50 -8 -40 2 -55 8 -75 31 -14 15 -25 37 -25 49 0 11
-4 17 -10 14 -5 -3 -11 4 -11 17 -1 13 -2 39 -3 58 -1 19 -5 41 -9 48 -5 6 -4
12 2 12 5 0 8 8 6 18 -5 36 48 138 67 126 4 -3 8 1 8 8 0 24 75 22 113 -3z"/>
<path d="M5965 3377 c-59 -19 -105 -40 -105 -49 0 -4 -6 -7 -12 -5 -7 1 -12
-3 -11 -10 3 -16 -24 -24 -35 -10 -6 7 -11 21 -13 31 -4 22 -59 42 -59 23 0
-8 -3 -7 -9 1 -16 26 -38 -12 -34 -59 1 -24 3 -156 3 -292 1 -223 3 -250 19
-266 12 -12 28 -16 54 -13 20 2 36 7 35 11 0 3 0 8 2 11 6 17 4 100 -3 100 -5
0 -5 4 -2 10 12 20 14 50 2 50 -8 0 -8 3 1 12 7 7 8 17 1 30 -5 10 -6 18 -1
18 9 0 8 72 -2 88 -3 6 -3 13 2 16 4 2 8 24 7 46 -1 24 4 44 11 47 7 2 9 14 6
25 -3 14 -1 19 6 14 7 -4 12 -2 12 4 0 14 25 40 39 40 6 0 11 5 11 11 0 5 5 7
10 4 6 -3 10 -1 10 6 0 7 3 9 6 6 4 -3 15 -2 25 4 11 5 19 6 19 2 0 -5 16 -8
35 -7 19 1 35 -2 35 -7 0 -5 6 -9 14 -9 18 0 58 -49 50 -61 -3 -5 -1 -9 5 -9
5 0 9 -25 9 -58 -1 -32 2 -64 6 -70 3 -6 2 -13 -4 -17 -6 -4 -8 -11 -5 -16 3
-5 6 -73 7 -151 0 -79 2 -145 3 -148 2 -3 26 -3 53 -2 45 3 52 7 60 30 5 15 8
39 7 55 -1 15 3 27 9 27 6 0 5 4 -3 9 -12 7 -12 13 -3 24 7 7 9 17 5 21 -12
11 -10 76 1 76 7 0 8 3 1 8 -15 11 -17 104 -2 95 9 -5 9 -3 1 8 -9 12 -14 45
-17 112 -1 9 -5 17 -9 17 -4 0 -8 14 -8 31 0 16 -4 28 -9 25 -5 -3 -12 5 -15
19 -4 14 -11 25 -17 25 -6 0 -7 6 -3 13 4 6 4 9 -1 5 -5 -5 -23 4 -42 18 -18
14 -33 23 -33 20 0 -3 -16 2 -36 10 -23 9 -33 11 -29 4 5 -9 2 -9 -11 -3 -12
6 -30 6 -49 0z"/>
<path d="M6877 3379 c-9 -6 -22 -7 -27 -4 -6 3 -10 1 -10 -5 0 -6 -4 -9 -9 -6
-11 7 -74 -19 -94 -39 -8 -8 -13 -24 -10 -34 10 -38 26 -42 82 -20 29 10 50
16 48 11 -3 -4 7 -7 21 -6 15 1 27 3 27 4 0 7 36 6 41 -1 3 -5 9 -7 14 -4 15
9 71 -17 66 -31 -3 -8 0 -13 7 -11 7 1 11 -4 10 -10 -2 -7 1 -13 5 -13 5 0 8
-12 6 -27 -1 -16 -2 -34 -3 -41 -1 -7 -5 -10 -11 -7 -5 3 -10 3 -10 -2 0 -4
-26 -8 -58 -8 -31 1 -62 -2 -67 -6 -6 -4 -24 -9 -40 -11 -17 -2 -40 -9 -51
-16 -12 -6 -24 -8 -28 -5 -3 3 -6 1 -6 -6 0 -7 -3 -10 -7 -8 -5 2 -21 -9 -36
-25 -15 -15 -25 -28 -22 -28 4 0 -1 -7 -9 -16 -9 -8 -17 -24 -17 -35 -2 -20
-5 -37 -9 -41 -7 -9 -5 -58 3 -58 5 0 7 -6 4 -13 -3 -7 1 -21 9 -31 7 -11 11
-23 8 -27 -3 -5 -1 -9 5 -9 5 0 12 -8 15 -18 6 -16 71 -49 89 -44 4 1 7 -1 7
-5 0 -5 24 -7 52 -6 29 1 53 2 53 3 0 1 7 3 15 5 30 6 68 24 75 35 3 5 11 8
16 5 5 -4 9 -2 9 3 0 6 9 8 20 5 18 -5 24 -15 21 -35 0 -5 7 -8 16 -9 10 0 32
-1 50 -2 17 -1 29 2 26 6 -3 4 1 14 7 22 7 8 8 15 3 15 -12 0 -11 143 2 152 7
5 7 8 0 8 -13 0 -15 60 -3 60 5 0 6 6 1 13 -11 18 -12 36 -2 43 6 4 6 11 -1
19 -8 10 -8 19 0 36 7 12 8 19 2 15 -6 -3 -10 9 -10 32 1 51 -7 86 -29 124
-19 34 -63 84 -63 72 0 -4 -9 1 -20 11 -10 9 -26 15 -35 12 -8 -4 -15 -2 -15
3 0 6 -3 9 -7 9 -5 -1 -10 0 -13 1 -17 8 -98 7 -113 -1z m88 -340 c10 18 85
10 95 -10 6 -10 7 -20 3 -22 -5 -3 -7 -27 -7 -54 2 -57 -30 -123 -58 -123 -10
0 -18 -3 -18 -8 0 -14 -68 -30 -81 -18 -9 8 -10 8 -4 -2 6 -11 3 -12 -12 -3
-11 6 -23 7 -27 4 -3 -3 -6 -1 -6 5 0 7 -6 12 -14 12 -7 0 -20 8 -27 17 -12
14 -12 15 0 9 9 -6 8 0 -4 17 -10 17 -13 27 -6 32 8 4 8 12 1 26 -8 13 -7 19
0 19 6 0 8 5 5 10 -3 6 -1 10 5 10 6 0 8 4 5 10 -6 10 25 42 36 38 3 -2 13 5
23 15 10 9 21 15 26 12 5 -3 11 -1 15 5 4 7 12 7 25 0 12 -6 21 -6 25 -1z"/>
<path d="M5002 3362 c-14 -2 -27 -14 -33 -30 -14 -35 -18 -82 -6 -82 4 0 5 -5
1 -12 -11 -17 -12 -88 -2 -94 5 -3 6 -10 3 -15 -12 -18 -14 -49 -4 -49 6 0 7
-6 3 -12 -5 -7 -8 -22 -8 -33 0 -11 3 -26 8 -33 4 -6 3 -12 -3 -12 -10 0 -8
-21 5 -54 6 -15 4 -17 -7 -11 -8 5 -7 1 4 -12 9 -11 14 -22 11 -26 -4 -3 -3
-14 0 -24 4 -10 6 -19 4 -21 -2 -2 5 -8 15 -13 9 -6 17 -16 17 -23 0 -23 103
-96 117 -82 3 3 14 1 24 -4 11 -6 20 -6 23 -1 4 5 18 6 33 2 20 -5 39 -1 70
16 24 12 43 20 43 18 0 -3 8 3 18 13 11 9 17 21 14 26 -3 5 3 6 12 3 10 -4 23
-7 29 -7 7 0 6 -4 -3 -10 -11 -7 -11 -10 -2 -10 7 0 10 -4 7 -10 -3 -5 -1 -10
5 -10 6 0 9 -4 6 -9 -3 -5 8 -11 26 -13 55 -9 64 11 63 144 0 64 3 114 7 111
5 -2 4 7 -1 20 -6 16 -6 28 2 36 8 8 8 11 -1 11 -14 0 -12 21 3 32 7 5 6 8 -1
8 -11 0 -11 131 1 149 3 6 2 11 -3 11 -5 0 -6 17 -2 40 4 23 3 40 -2 40 -5 0
-7 4 -4 8 8 13 -27 28 -59 26 -44 -2 -45 -3 -45 -20 0 -8 -4 -13 -9 -9 -10 5
-6 -33 3 -43 3 -2 1 -13 -5 -23 -7 -14 -6 -19 3 -19 8 0 9 -3 3 -8 -10 -7 -15
-92 -5 -92 7 0 4 -86 -4 -99 -4 -6 -2 -11 4 -11 6 0 8 -5 5 -11 -4 -6 -8 -34
-9 -62 -2 -32 -11 -65 -24 -87 -12 -19 -22 -31 -22 -26 0 6 -6 1 -14 -9 -15
-21 -93 -47 -101 -34 -3 4 -11 6 -19 3 -22 -8 -63 13 -87 47 -13 18 -16 29 -8
24 10 -6 10 -3 -2 11 -9 10 -15 27 -14 37 2 9 -1 17 -6 17 -6 0 -6 7 0 19 6
10 8 21 4 25 -11 11 -10 61 1 75 8 11 8 13 0 8 -7 -4 -11 7 -11 33 0 24 4 37
10 33 6 -4 7 -1 1 8 -13 20 -13 61 0 78 8 11 8 13 0 8 -13 -7 -13 50 0 71 4 7
2 12 -4 12 -6 0 -9 4 -5 9 3 6 -4 15 -15 21 -11 6 -20 7 -20 3 0 -4 -4 -3 -8
2 -4 6 -17 9 -30 7z"/>
<path d="M6442 3363 c-7 -3 -17 -14 -23 -25 -6 -11 -7 -18 -2 -15 4 3 9 -21
10 -54 1 -42 -2 -57 -10 -52 -7 4 -6 -1 2 -10 10 -13 11 -20 2 -31 -8 -10 -9
-16 -1 -21 14 -9 13 -65 -2 -65 -9 0 -9 -3 -3 -8 14 -10 15 -165 1 -174 -8 -6
-8 -8 0 -8 7 0 11 -24 11 -62 1 -94 1 -94 26 -104 35 -15 64 -6 74 24 5 15 9
68 9 119 -1 52 3 89 8 86 5 -4 5 0 0 8 -11 18 -13 199 -1 199 4 0 5 6 0 13
-12 19 -14 47 -3 47 7 0 7 7 3 18 -10 21 -10 43 0 59 4 6 3 15 -3 18 -8 5 -7
11 1 21 10 12 9 13 -6 8 -11 -5 -16 -3 -12 3 7 11 -28 11 -39 0 -4 -4 -12 -3
-18 2 -6 4 -17 6 -24 4z"/>
</g>
</svg>
